<svg width="14" height="14" viewBox="0 0 14 14" fill="none" xmlns="http://www.w3.org/2000/svg">
<path d="M12.9494 9.33705L9.68199 5.94233L2.49368 13.4107M2.32771 1.4613H11.6217C12.355 1.4613 12.9494 2.05574 12.9494 2.78902V12.083C12.9494 12.8163 12.355 13.4107 11.6217 13.4107H2.32771C1.59444 13.4107 1 12.8163 1 12.083V2.78902C1 2.05574 1.59444 1.4613 2.32771 1.4613ZM5.48103 5.19549C5.48103 5.60796 5.14666 5.94233 4.73419 5.94233C4.32172 5.94233 3.98735 5.60796 3.98735 5.19549C3.98735 4.78303 4.32172 4.44865 4.73419 4.44865C5.14666 4.44865 5.48103 4.78303 5.48103 5.19549Z" stroke="white" stroke-linecap="round" stroke-linejoin="round"/>
</svg>
