<svg width="52" height="37" viewBox="0 0 52 37" fill="none" xmlns="http://www.w3.org/2000/svg">
<path d="M4.40057 24.9131C2.24136 24.6367 -0.876825 22.7903 2.47107 16.7578C6.53681 9.43179 13.2212 7.08195 16.1844 6.59815C19.6299 6.03561 24.5915 6.94372 20.8014 14.4079C18.9197 18.1137 11.843 23.1853 10.3269 23.8764M11.8429 18.0018C10.8093 21.1119 8.76951 27.6223 8.87977 28.7834M10.258 24.0838C12.9455 21.5266 19.7549 21.1119 18.4584 26.2263C17.4248 30.3039 14.117 33.4807 9.98237 35.0727C3.71146 37.4874 3.43582 34.5889 4.5384 33.1376M27.1412 21.803C26.3831 22.8858 25.694 25.0993 25.694 26.2954C25.6941 27.6776 28.037 28.2997 31.5515 21.2501C31.6457 21.0439 31.7524 20.8154 31.8661 20.5694M31.8661 20.5694C32.8068 18.535 34.2282 15.305 32.9986 13.5786C31.6866 11.7364 29.7598 11.367 28.037 13.1639C26.5605 14.704 25.7943 20.3904 31.8661 20.5694ZM31.8661 20.5694C32.8895 20.5996 34.1071 20.4733 35.5484 20.1443C35.7312 20.1443 32.4809 25.7563 33.4732 26.9174C34.4655 28.0785 37.2403 24.7288 38.5037 22.9088M17.218 34.1743C17.6315 34.1743 30.3111 28.507 43.1975 30.7186M41.278 12.6166L40.431 14.1259M48.0212 1L45.1763 5.82101M45.1763 5.82101L44.0244 7.77308M45.1763 5.82101L31.8377 5.14731M45.1763 5.82101L50.9844 6.11436M31.8272 5.14678L31.8377 5.14731M31.8377 5.14731L31.8372 5.14678M31.8377 5.14731L40.8567 16.0644M40.2343 30.2348L40.8545 16.0666L40.8567 16.0644M40.8567 16.0644L40.8601 16.0685M40.8567 16.0644L51 6.11436M26.1075 22.425C25.9697 21.2501 24.178 19.5223 22.0418 22.0104C18.6072 26.0105 21.6283 29.129 24.1091 26.7792C25.8319 25.1473 26.1075 23.1853 26.1075 22.425ZM43.8715 8.12382C44.1753 8.40855 44.6189 9.30547 43.9621 10.6153C43.3054 11.9251 42.2178 12.3129 41.7561 12.343C41.2638 12.0947 40.5066 11.1448 41.4159 9.3312C42.3252 7.51758 43.4319 7.77061 43.8715 8.12382Z" stroke="white" stroke-width="2" stroke-linecap="round"/>
</svg>
