<svg width="18" height="18" viewBox="0 0 18 18" fill="none" xmlns="http://www.w3.org/2000/svg">
<path d="M15.6649 16.9707L15.6647 16.9709L15.673 16.9784C15.9398 17.2227 16.2225 17.2814 16.4698 17.2358C16.7013 17.1932 16.8775 17.0645 16.9708 16.9713C17.343 16.6026 17.3431 16.0354 16.9709 15.6667C16.9707 15.6665 16.9705 15.6663 16.9702 15.6661L13.5235 12.2135C14.4462 11.0124 14.9923 9.50701 14.9923 7.87663C14.9923 3.94125 11.8038 0.75 7.87113 0.75C3.93841 0.75 0.75 3.94125 0.75 7.87663C0.75 11.812 3.93841 15.0033 7.87113 15.0033C9.50708 15.0033 11.0147 14.4505 12.2177 13.5208L15.6649 16.9707ZM2.59095 7.87663C2.59095 4.95823 4.95555 2.59202 7.87113 2.59202C10.7869 2.59202 13.1546 4.95842 13.1546 7.87663C13.1546 10.795 10.79 13.1612 7.87439 13.1612C4.95862 13.1612 2.59095 10.7948 2.59095 7.87663Z" fill="white" stroke="white" stroke-width="0.5"/>
</svg>
