<svg width="900" height="180" viewBox="0 0 900 180" fill="none" xmlns="http://www.w3.org/2000/svg">
<g opacity="0.75">
<rect opacity="0.2" x="1" y="1" width="898" height="178" rx="13" fill="#D9D9D9"/>
<path d="M427.067 95.086V88.178C427.067 83.756 424.427 81.424 420.423 81.424C416.463 81.424 413.823 83.756 413.823 88.178V95.086H411.931L411.909 100.366H413.933L413.955 97H426.913V100.366H428.959V95.086H427.067ZM416.001 95.086V87.958C416.001 84.9 417.717 83.404 420.423 83.404C423.173 83.404 424.845 84.9 424.845 87.958V95.086H416.001ZM436.529 97.132C440.027 97.132 442.579 94.646 442.579 91.17C442.579 87.694 440.027 85.23 436.529 85.23C433.031 85.23 430.457 87.694 430.457 91.17C430.457 94.646 433.031 97.132 436.529 97.132ZM436.529 95.284C434.285 95.284 432.591 93.656 432.591 91.17C432.591 88.684 434.285 87.078 436.529 87.078C438.773 87.078 440.445 88.684 440.445 91.17C440.445 93.656 438.773 95.284 436.529 95.284ZM451.569 85.736C449.611 85.736 447.961 86.594 446.971 88.09C447.191 85.054 448.621 83.558 451.657 82.898L456.563 81.842L456.255 79.906L450.931 81.094C446.905 81.974 444.947 84.592 444.947 89.41C444.947 94.316 447.169 97.176 451.151 97.176C454.715 97.176 457.179 94.844 457.179 91.412C457.179 88.068 454.869 85.736 451.569 85.736ZM451.195 95.416C448.951 95.416 447.345 93.788 447.345 91.478C447.345 89.168 448.907 87.628 451.195 87.628C453.483 87.628 455.023 89.168 455.023 91.478C455.023 93.788 453.461 95.416 451.195 95.416ZM469.039 85.34V87.1C468.071 85.846 466.619 85.23 464.969 85.23C461.559 85.23 459.073 87.606 459.073 91.17C459.073 94.734 461.559 97.132 464.969 97.132C466.685 97.132 468.181 96.472 469.127 95.152V97H471.151V85.34H469.039ZM465.145 95.284C462.901 95.284 461.207 93.656 461.207 91.17C461.207 88.684 462.901 87.078 465.145 87.078C467.367 87.078 469.061 88.684 469.061 91.17C469.061 93.656 467.367 95.284 465.145 95.284ZM483.134 90.95C484.3 90.488 485.004 89.586 485.004 88.332C485.004 86.418 483.354 85.34 480.604 85.34H475.192V97H480.802C483.904 97 485.4 95.812 485.4 93.788C485.4 92.314 484.674 91.346 483.134 90.95ZM477.26 86.968H480.428C482.034 86.968 482.892 87.518 482.892 88.64C482.892 89.762 482.034 90.356 480.428 90.356H477.26V86.968ZM480.648 95.372H477.26V91.874H480.78C482.518 91.874 483.288 92.446 483.288 93.656C483.288 94.844 482.386 95.372 480.648 95.372ZM497.219 85.34V91.368C497.219 93.876 495.811 95.24 493.611 95.24C491.609 95.24 490.465 94.096 490.465 91.808V85.34H488.353V92.05C488.353 95.482 490.355 97.132 493.369 97.132C495.019 97.132 496.449 96.472 497.307 95.284V97H499.331V85.34H497.219ZM518.029 85.23C516.049 85.23 514.421 86.066 513.541 87.386C512.771 85.934 511.275 85.23 509.493 85.23C507.733 85.23 506.303 85.89 505.467 87.078V85.34H503.443V97H505.555V90.994C505.555 88.464 506.941 87.122 509.053 87.122C510.967 87.122 512.067 88.244 512.067 90.532V97H514.179V90.994C514.179 88.464 515.565 87.122 517.677 87.122C519.591 87.122 520.691 88.244 520.691 90.532V97H522.803V90.29C522.803 86.858 520.867 85.23 518.029 85.23ZM531.423 97.264C534.723 97.264 536.659 95.548 536.659 92.776C536.659 90.202 534.965 88.64 532.061 88.64C530.521 88.64 529.157 89.102 528.387 89.85V85.34H526.275V92.622C526.275 95.592 528.101 97.264 531.423 97.264ZM531.445 95.658C529.553 95.658 528.387 94.58 528.387 92.798V91.764C528.937 90.774 530.059 90.18 531.489 90.18C533.403 90.18 534.503 91.192 534.503 92.82C534.503 94.536 533.359 95.658 531.445 95.658ZM551.278 85.736C549.32 85.736 547.67 86.594 546.68 88.09C546.9 85.054 548.33 83.558 551.366 82.898L556.272 81.842L555.964 79.906L550.64 81.094C546.614 81.974 544.656 84.592 544.656 89.41C544.656 94.316 546.878 97.176 550.86 97.176C554.424 97.176 556.888 94.844 556.888 91.412C556.888 88.068 554.578 85.736 551.278 85.736ZM550.904 95.416C548.66 95.416 547.054 93.788 547.054 91.478C547.054 89.168 548.616 87.628 550.904 87.628C553.192 87.628 554.732 89.168 554.732 91.478C554.732 93.788 553.17 95.416 550.904 95.416ZM568.748 85.34V87.1C567.78 85.846 566.328 85.23 564.678 85.23C561.268 85.23 558.782 87.606 558.782 91.17C558.782 94.734 561.268 97.132 564.678 97.132C566.394 97.132 567.89 96.472 568.836 95.152V97H570.86V85.34H568.748ZM564.854 95.284C562.61 95.284 560.916 93.656 560.916 91.17C560.916 88.684 562.61 87.078 564.854 87.078C567.076 87.078 568.77 88.684 568.77 91.17C568.77 93.656 567.076 95.284 564.854 95.284ZM574.9 97H577.012V92.116H583.656V97H585.768V85.34H583.656V90.29H577.012V85.34H574.9V97ZM589.875 97H591.987V92.116H598.631V97H600.743V85.34H598.631V90.29H591.987V85.34H589.875V97ZM610.064 95.284C608.106 95.284 606.654 94.36 606.06 92.754L615.322 90.95C615.256 87.474 612.77 85.23 609.58 85.23C606.192 85.23 603.728 87.716 603.728 91.17C603.728 94.646 606.236 97.132 609.998 97.132C611.934 97.132 613.54 96.472 614.574 95.24L613.43 93.876C612.572 94.822 611.428 95.284 610.064 95.284ZM609.58 87.012C611.472 87.012 612.858 88.2 613.232 89.872L605.774 91.28V91.06C605.774 88.618 607.358 87.012 609.58 87.012ZM623.864 85.23C620.256 85.23 617.814 87.65 617.814 91.214V101.268H619.948V95.284C620.872 96.472 622.302 97.132 624.084 97.132C627.472 97.132 629.804 94.712 629.804 91.192C629.804 87.628 627.428 85.23 623.864 85.23ZM623.798 95.284C621.488 95.284 619.904 93.612 619.904 91.17C619.904 88.728 621.488 87.078 623.798 87.078C626.108 87.078 627.714 88.772 627.714 91.192C627.714 93.612 626.086 95.284 623.798 95.284Z" fill="white"/>
<path d="M355 102L338.395 85.3945C336.52 83.5201 333.481 83.5201 331.607 85.3946L291.002 126M291 54H346.998C351.416 54 354.997 57.5817 354.997 61.9999V117.999C354.997 122.418 351.416 125.999 346.998 125.999H291C286.582 125.999 283 122.418 283 117.999V61.9999C283 57.5817 286.582 54 291 54ZM310.996 76.0005C310.996 79.3142 308.31 82.0005 304.996 82.0005C301.683 82.0005 298.997 79.3142 298.997 76.0005C298.997 72.6869 301.683 70.0006 304.996 70.0006C308.31 70.0006 310.996 72.6869 310.996 76.0005Z" stroke="white" stroke-width="4" stroke-linecap="round" stroke-linejoin="round"/>
<path d="M1 148.6L1 126.818M1 115.204L1 93.4221M1 82.8084L1 61.0265M1 50.4128L1 28.6309" stroke="white" stroke-width="2" stroke-linecap="round" stroke-linejoin="round"/>
<path d="M899 148.6L899 126.818M899 115.204L899 93.4221M899 82.8084L899 61.0265M899 50.4128L899 28.6309" stroke="white" stroke-width="2" stroke-linecap="round" stroke-linejoin="round"/>
<path d="M33.2147 1H55.625M69.6314 1H92.0417M106.048 1H128.458M142.465 1H164.875M178.881 1H201.292M215.298 1H237.708M251.715 1H274.125M288.131 1H310.542M324.548 1H346.958M360.965 1H383.375M397.381 1H419.792M19.2083 1H15.0064C7.27088 1 1 7.09506 1 14.6137V18.6978M435 1H457.41M471.417 1H493.827M507.833 1H530.244M544.25 1H566.66M580.667 1H603.077M617.083 1H639.494M657.59 1H680M694.006 1H716.417M880.708 1H884.91C892.646 1 898.917 7.09506 898.917 14.6137V18.6978M769 1H791.41M807.506 1H829.917M843.923 1H866.333M732.59 1H755" stroke="white" stroke-width="2" stroke-linecap="round" stroke-linejoin="round"/>
<path d="M33.2147 178.698H55.625M69.6314 178.698H92.0417M106.048 178.698H128.458M142.465 178.698H164.875M178.881 178.698H201.292M215.298 178.698H237.708M251.715 178.698H274.125M288.131 178.698H310.542M324.548 178.698H346.958M360.965 178.698H383.375M397.381 178.698H419.792M19.2083 178.698H15.0064C7.27088 178.698 1 172.603 1 165.084V161M435 178.698H457.41M471.417 178.698H493.827M507.833 178.698H530.244M544.25 178.698H566.66M580.667 178.698H603.077M617.083 178.698H639.494M657.59 178.698H680M694.006 178.698H716.417M880.708 178.698H884.91C892.646 178.698 898.917 172.603 898.917 165.084V161M769 178.698H791.41M807.506 178.698H829.917M843.923 178.698H866.333M732.59 178.698H755" stroke="white" stroke-width="2" stroke-linecap="round" stroke-linejoin="round"/>
</g>
</svg>
