<svg width="454" height="439" viewBox="0 0 454 439" fill="none" xmlns="http://www.w3.org/2000/svg">
<g opacity="0.75">
<rect opacity="0.2" x="1" y="1" width="451.006" height="437" rx="13" fill="#D9D9D9"/>
<path d="M452.006 407.369L452.006 385.587M452.006 371.974L452.006 350.192M452.006 336.578L452.006 314.796M452.006 301.182L452.006 279.4M452.006 265.787L452.006 244.005M452.006 230.391L452.006 208.609M452.006 194.995L452.006 173.213M452.006 159.6L452.006 137.818M452.006 124.204L452.006 102.422M452.006 88.8084L452.006 67.0265M452.006 53.4128L452.006 31.6309" stroke="white" stroke-width="2" stroke-linecap="round" stroke-linejoin="round"/>
<path d="M1 407.369L1 385.587M1 371.974L1 350.192M1 336.578L1 314.796M1 301.182L1 279.4M1 265.787L1 244.005M1 230.391L1 208.609M1 194.995L1 173.213M1 159.6L1 137.818M1 124.204L1 102.422M1 88.8084L1 67.0265M1 53.4128L1 31.6309" stroke="white" stroke-width="2" stroke-linecap="round" stroke-linejoin="round"/>
<path d="M33.2147 438H55.625M69.6314 438H92.0417M106.048 438H128.458M142.465 438H164.875M178.881 438H201.292M215.298 438H237.708M251.715 438H274.125M288.131 438H310.542M324.548 438H346.958M360.965 438H383.375M397.381 438H419.792M19.2083 438H15.0064C7.27088 438 1 431.905 1 424.386V420.302M433.798 438H438C445.736 438 452.006 431.905 452.006 424.386V420.302" stroke="white" stroke-width="2" stroke-linecap="round" stroke-linejoin="round"/>
<path d="M33.2147 1H55.625M69.6314 1H92.0417M106.048 1H128.458M142.465 1H164.875M178.881 1H201.292M215.298 1H237.708M251.715 1H274.125M288.131 1H310.542M324.548 1H346.958M360.965 1H383.375M397.381 1H419.792M19.2083 1H15.0064C7.27088 1 1 7.09506 1 14.6137V18.6978M433.798 1H438C445.736 1 452.006 7.09506 452.006 14.6137V18.6978" stroke="white" stroke-width="2" stroke-linecap="round" stroke-linejoin="round"/>
<path d="M114.75 294.551V287.643C114.75 283.221 112.11 280.889 108.106 280.889C104.146 280.889 101.506 283.221 101.506 287.643V294.551H99.6144L99.5924 299.831H101.616L101.638 296.465H114.596V299.831H116.642V294.551H114.75ZM103.684 294.551V287.423C103.684 284.365 105.4 282.869 108.106 282.869C110.856 282.869 112.528 284.365 112.528 287.423V294.551H103.684ZM124.213 296.597C127.711 296.597 130.263 294.111 130.263 290.635C130.263 287.159 127.711 284.695 124.213 284.695C120.715 284.695 118.141 287.159 118.141 290.635C118.141 294.111 120.715 296.597 124.213 296.597ZM124.213 294.749C121.969 294.749 120.275 293.121 120.275 290.635C120.275 288.149 121.969 286.543 124.213 286.543C126.457 286.543 128.129 288.149 128.129 290.635C128.129 293.121 126.457 294.749 124.213 294.749ZM139.252 285.201C137.294 285.201 135.644 286.059 134.654 287.555C134.874 284.519 136.304 283.023 139.34 282.363L144.246 281.307L143.938 279.371L138.614 280.559C134.588 281.439 132.63 284.057 132.63 288.875C132.63 293.781 134.852 296.641 138.834 296.641C142.398 296.641 144.862 294.309 144.862 290.877C144.862 287.533 142.552 285.201 139.252 285.201ZM138.878 294.881C136.634 294.881 135.028 293.253 135.028 290.943C135.028 288.633 136.59 287.093 138.878 287.093C141.166 287.093 142.706 288.633 142.706 290.943C142.706 293.253 141.144 294.881 138.878 294.881ZM156.723 284.805V286.565C155.755 285.311 154.303 284.695 152.653 284.695C149.243 284.695 146.757 287.071 146.757 290.635C146.757 294.199 149.243 296.597 152.653 296.597C154.369 296.597 155.865 295.937 156.811 294.617V296.465H158.835V284.805H156.723ZM152.829 294.749C150.585 294.749 148.891 293.121 148.891 290.635C148.891 288.149 150.585 286.543 152.829 286.543C155.051 286.543 156.745 288.149 156.745 290.635C156.745 293.121 155.051 294.749 152.829 294.749ZM170.817 290.415C171.983 289.953 172.687 289.051 172.687 287.797C172.687 285.883 171.037 284.805 168.287 284.805H162.875V296.465H168.485C171.587 296.465 173.083 295.277 173.083 293.253C173.083 291.779 172.357 290.811 170.817 290.415ZM164.943 286.433H168.111C169.717 286.433 170.575 286.983 170.575 288.105C170.575 289.227 169.717 289.821 168.111 289.821H164.943V286.433ZM168.331 294.837H164.943V291.339H168.463C170.201 291.339 170.971 291.911 170.971 293.121C170.971 294.309 170.069 294.837 168.331 294.837ZM184.903 284.805V290.833C184.903 293.341 183.495 294.705 181.295 294.705C179.293 294.705 178.149 293.561 178.149 291.273V284.805H176.037V291.515C176.037 294.947 178.039 296.597 181.053 296.597C182.703 296.597 184.133 295.937 184.991 294.749V296.465H187.015V284.805H184.903ZM205.713 284.695C203.733 284.695 202.105 285.531 201.225 286.851C200.455 285.399 198.959 284.695 197.177 284.695C195.417 284.695 193.987 285.355 193.151 286.543V284.805H191.127V296.465H193.239V290.459C193.239 287.929 194.625 286.587 196.737 286.587C198.651 286.587 199.751 287.709 199.751 289.997V296.465H201.863V290.459C201.863 287.929 203.249 286.587 205.361 286.587C207.275 286.587 208.375 287.709 208.375 289.997V296.465H210.487V289.755C210.487 286.323 208.551 284.695 205.713 284.695ZM219.106 296.729C222.406 296.729 224.342 295.013 224.342 292.241C224.342 289.667 222.648 288.105 219.744 288.105C218.204 288.105 216.84 288.567 216.07 289.315V284.805H213.958V292.087C213.958 295.057 215.784 296.729 219.106 296.729ZM219.128 295.123C217.236 295.123 216.07 294.045 216.07 292.263V291.229C216.62 290.239 217.742 289.645 219.172 289.645C221.086 289.645 222.186 290.657 222.186 292.285C222.186 294.001 221.042 295.123 219.128 295.123ZM241.469 296.465H243.955L239.225 290.415L243.647 284.805H241.381L237.597 289.733H235.133V284.805H233.021V296.465H235.133V291.537H237.553L241.469 296.465ZM254.627 284.805V286.565C253.659 285.311 252.207 284.695 250.557 284.695C247.147 284.695 244.661 287.071 244.661 290.635C244.661 294.199 247.147 296.597 250.557 296.597C252.273 296.597 253.769 295.937 254.715 294.617V296.465H256.739V284.805H254.627ZM250.733 294.749C248.489 294.749 246.795 293.121 246.795 290.635C246.795 288.149 248.489 286.543 250.733 286.543C252.955 286.543 254.649 288.149 254.649 290.635C254.649 293.121 252.955 294.749 250.733 294.749ZM266.323 284.695C262.715 284.695 260.273 287.115 260.273 290.679V300.733H262.407V294.749C263.331 295.937 264.761 296.597 266.543 296.597C269.931 296.597 272.263 294.177 272.263 290.657C272.263 287.093 269.887 284.695 266.323 284.695ZM266.257 294.749C263.947 294.749 262.363 293.077 262.363 290.635C262.363 288.193 263.947 286.543 266.257 286.543C268.567 286.543 270.173 288.237 270.173 290.657C270.173 293.077 268.545 294.749 266.257 294.749ZM289.932 284.695C287.952 284.695 286.324 285.531 285.444 286.851C284.674 285.399 283.178 284.695 281.396 284.695C279.636 284.695 278.206 285.355 277.37 286.543V284.805H275.346V296.465H277.458V290.459C277.458 287.929 278.844 286.587 280.956 286.587C282.87 286.587 283.97 287.709 283.97 289.997V296.465H286.082V290.459C286.082 287.929 287.468 286.587 289.58 286.587C291.494 286.587 292.594 287.709 292.594 289.997V296.465H294.706V289.755C294.706 286.323 292.77 284.695 289.932 284.695ZM306.977 284.805V290.833C306.977 293.341 305.569 294.705 303.369 294.705C301.367 294.705 300.223 293.561 300.223 291.273V284.805H298.111V291.515C298.111 294.947 300.113 296.597 303.127 296.597C304.777 296.597 306.207 295.937 307.065 294.749V296.465H309.089V284.805H306.977ZM313.201 296.465H315.313V291.581H321.957V296.465H324.069V284.805H321.957V289.755H315.313V284.805H313.201V296.465ZM336.624 296.465H339.11L334.38 290.415L338.802 284.805H336.536L332.752 289.733H330.288V284.805H328.176V296.465H330.288V291.537H332.708L336.624 296.465ZM349.623 284.805V290.833C349.623 293.341 348.215 294.705 346.015 294.705C344.013 294.705 342.869 293.561 342.869 291.273V284.805H340.757V291.515C340.757 294.947 342.759 296.597 345.773 296.597C347.423 296.597 348.853 295.937 349.711 294.749V296.465H351.735V284.805H349.623Z" fill="white"/>
<path d="M275.045 199.364L252.433 176.751C249.88 174.198 245.742 174.198 243.19 176.751L187.897 232.045M187.893 134H264.148C270.164 134 275.041 138.877 275.041 144.894V221.15C275.041 227.167 270.164 232.044 264.148 232.044H187.893C181.877 232.044 177 227.167 177 221.15V144.894C177 138.877 181.877 134 187.893 134ZM215.123 163.959C215.123 168.471 211.466 172.129 206.953 172.129C202.441 172.129 198.783 168.471 198.783 163.959C198.783 159.447 202.441 155.789 206.953 155.789C211.466 155.789 215.123 159.447 215.123 163.959Z" stroke="white" stroke-width="4" stroke-linecap="round" stroke-linejoin="round"/>
</g>
</svg>
