<svg width="269" height="269" viewBox="0 0 269 269" fill="none" xmlns="http://www.w3.org/2000/svg">
<g opacity="0.75">
<circle opacity="0.2" cx="134.5" cy="135" r="133.5" fill="#D9D9D9"/>
<path d="M2.00005 143.999C1.00005 137.499 1 133.999 1 133.999C1 133.999 1.00005 129.508 2.00005 123.999M267 143.999C268 137.499 268 133.999 268 133.999C268 133.999 268 129.508 267 123.999M4.0561 109.382C4.7725 102.845 5.67831 99.464 5.67831 99.464C5.67831 99.464 6.84068 95.1262 9.23248 90.0636M260.026 177.969C262.675 171.949 263.581 168.569 263.581 168.569C263.581 168.569 264.743 164.231 265.203 158.651M15.0021 76.4769C17.386 70.3477 19.136 67.3166 19.136 67.3166C19.136 67.3166 21.3815 63.4275 25.0021 59.1564M244.498 208.977C248.614 203.847 250.364 200.816 250.364 200.816C250.364 200.816 252.609 196.927 254.498 191.656M34.091 47.5254C37.9801 42.2221 40.4549 39.7472 40.4549 39.7472C40.4549 39.7472 43.6305 36.5717 48.2331 33.3832M221.474 234.909C226.777 231.02 229.252 228.545 229.252 228.545C229.252 228.545 232.428 225.369 235.616 220.766M60.0229 24.5015C65.152 20.3854 68.1831 18.6354 68.1831 18.6354C68.1831 18.6354 72.0723 16.39 77.3434 14.5015M192.522 253.997C198.652 251.613 201.683 249.864 201.683 249.864C201.683 249.864 205.572 247.618 209.843 243.997M91.0301 8.97304C97.0498 6.32479 100.43 5.41887 100.43 5.41887C100.43 5.41887 104.768 4.25661 110.349 3.79666M159.617 264.943C166.155 264.227 169.535 263.321 169.535 263.321C169.535 263.321 173.873 262.159 178.936 259.767M125 2.00005C131.5 1.00005 135 1 135 1C135 1 139.491 1.00005 145 2.00005M125 266.999C131.5 267.999 135 267.999 135 267.999C135 267.999 139.491 267.999 145 266.999M159.617 4.05608C166.154 4.77248 169.535 5.6783 169.535 5.6783C169.535 5.6783 173.873 6.84067 178.936 9.23247M91.0304 260.025C97.0501 262.674 100.431 263.58 100.431 263.58C100.431 263.58 104.769 264.742 110.349 265.202M192.522 15.0021C198.652 17.386 201.683 19.136 201.683 19.136C201.683 19.136 205.572 21.3815 209.843 25.0021M60.023 244.497C65.1522 248.613 68.1832 250.363 68.1832 250.363C68.1832 250.363 72.0725 252.609 77.3435 254.497M221.474 34.091C226.777 37.9801 229.252 40.4549 229.252 40.4549C229.252 40.4549 232.428 43.6304 235.616 48.2331M34.0909 221.473C37.98 226.776 40.4548 229.251 40.4548 229.251C40.4548 229.251 43.6304 232.427 48.233 235.615M244.498 60.0228C248.614 65.152 250.364 68.1831 250.364 68.1831C250.364 68.1831 252.609 72.0723 254.498 77.3433M15.0021 192.521C17.3861 198.651 19.136 201.682 19.136 201.682C19.136 201.682 21.3815 205.571 25.0021 209.842M260.025 91.0299C262.674 97.0496 263.579 100.43 263.579 100.43C263.579 100.43 264.742 104.768 265.202 110.348M4.05638 159.616C4.77278 166.154 5.67859 169.534 5.67859 169.534C5.67859 169.534 6.84096 173.872 9.23276 178.935" stroke="white" stroke-width="1.5" stroke-linecap="round" stroke-linejoin="round"/>
<path d="M89.4242 168.346V173.626H87.3782V170.26H74.4202L74.3982 173.626H72.3742L72.3962 168.346H74.2882V161.438C74.2882 159.268 74.8822 157.603 76.0702 156.444C77.2582 155.271 78.8642 154.684 80.8882 154.684C82.9269 154.684 84.5402 155.271 85.7282 156.444C86.9309 157.603 87.5322 159.268 87.5322 161.438V168.346H89.4242ZM85.3102 168.346V161.218C85.3102 159.722 84.9215 158.593 84.1442 157.83C83.3815 157.053 82.2962 156.664 80.8882 156.664C79.4949 156.664 78.4095 157.053 77.6322 157.83C76.8549 158.593 76.4662 159.722 76.4662 161.218V168.346H85.3102ZM96.9944 170.392C95.8358 170.392 94.7944 170.136 93.8704 169.622C92.9464 169.109 92.2204 168.405 91.6924 167.51C91.1791 166.601 90.9224 165.574 90.9224 164.43C90.9224 163.286 91.1791 162.267 91.6924 161.372C92.2204 160.463 92.9464 159.759 93.8704 159.26C94.7944 158.747 95.8358 158.49 96.9944 158.49C98.1531 158.49 99.1871 158.747 100.096 159.26C101.02 159.759 101.739 160.463 102.252 161.372C102.78 162.267 103.044 163.286 103.044 164.43C103.044 165.574 102.78 166.601 102.252 167.51C101.739 168.405 101.02 169.109 100.096 169.622C99.1871 170.136 98.1531 170.392 96.9944 170.392ZM96.9944 168.544C97.7424 168.544 98.4098 168.376 98.9964 168.038C99.5978 167.686 100.067 167.202 100.404 166.586C100.742 165.956 100.91 165.237 100.91 164.43C100.91 163.624 100.742 162.912 100.404 162.296C100.067 161.666 99.5978 161.182 98.9964 160.844C98.4098 160.507 97.7424 160.338 96.9944 160.338C96.2464 160.338 95.5718 160.507 94.9704 160.844C94.3838 161.182 93.9144 161.666 93.5624 162.296C93.2251 162.912 93.0564 163.624 93.0564 164.43C93.0564 165.237 93.2251 165.956 93.5624 166.586C93.9144 167.202 94.3838 167.686 94.9704 168.038C95.5718 168.376 96.2464 168.544 96.9944 168.544ZM112.034 158.996C113.12 158.996 114.088 159.238 114.938 159.722C115.789 160.206 116.449 160.881 116.918 161.746C117.402 162.597 117.644 163.572 117.644 164.672C117.644 165.802 117.388 166.806 116.874 167.686C116.376 168.552 115.664 169.226 114.74 169.71C113.831 170.194 112.79 170.436 111.616 170.436C109.636 170.436 108.104 169.762 107.018 168.412C105.948 167.048 105.412 165.134 105.412 162.67C105.412 160.28 105.904 158.41 106.886 157.06C107.869 155.696 109.372 154.794 111.396 154.354L116.72 153.166L117.028 155.102L112.122 156.158C110.597 156.496 109.46 157.068 108.712 157.874C107.964 158.681 107.539 159.84 107.436 161.35C107.935 160.602 108.58 160.023 109.372 159.612C110.164 159.202 111.052 158.996 112.034 158.996ZM111.66 168.676C112.408 168.676 113.068 168.508 113.64 168.17C114.227 167.833 114.682 167.371 115.004 166.784C115.327 166.183 115.488 165.501 115.488 164.738C115.488 163.58 115.136 162.648 114.432 161.944C113.728 161.24 112.804 160.888 111.66 160.888C110.516 160.888 109.585 161.24 108.866 161.944C108.162 162.648 107.81 163.58 107.81 164.738C107.81 165.501 107.972 166.183 108.294 166.784C108.632 167.371 109.094 167.833 109.68 168.17C110.267 168.508 110.927 168.676 111.66 168.676ZM131.617 158.6V170.26H129.593V168.412C129.123 169.058 128.529 169.549 127.811 169.886C127.092 170.224 126.3 170.392 125.435 170.392C124.305 170.392 123.293 170.143 122.399 169.644C121.504 169.146 120.8 168.449 120.287 167.554C119.788 166.645 119.539 165.604 119.539 164.43C119.539 163.257 119.788 162.223 120.287 161.328C120.8 160.434 121.504 159.737 122.399 159.238C123.293 158.74 124.305 158.49 125.435 158.49C126.271 158.49 127.041 158.652 127.745 158.974C128.449 159.282 129.035 159.744 129.505 160.36V158.6H131.617ZM125.611 168.544C126.344 168.544 127.011 168.376 127.613 168.038C128.214 167.686 128.683 167.202 129.021 166.586C129.358 165.956 129.527 165.237 129.527 164.43C129.527 163.624 129.358 162.912 129.021 162.296C128.683 161.666 128.214 161.182 127.613 160.844C127.011 160.507 126.344 160.338 125.611 160.338C124.863 160.338 124.188 160.507 123.587 160.844C123 161.182 122.531 161.666 122.179 162.296C121.841 162.912 121.673 163.624 121.673 164.43C121.673 165.237 121.841 165.956 122.179 166.586C122.531 167.202 123 167.686 123.587 168.038C124.188 168.376 124.863 168.544 125.611 168.544ZM143.599 164.21C145.109 164.592 145.865 165.538 145.865 167.048C145.865 168.075 145.476 168.867 144.699 169.424C143.936 169.982 142.792 170.26 141.267 170.26H135.657V158.6H141.069C142.447 158.6 143.525 158.864 144.303 159.392C145.08 159.906 145.469 160.639 145.469 161.592C145.469 162.208 145.3 162.744 144.963 163.198C144.64 163.638 144.185 163.976 143.599 164.21ZM137.725 163.616H140.893C141.699 163.616 142.308 163.47 142.719 163.176C143.144 162.883 143.357 162.458 143.357 161.9C143.357 160.786 142.535 160.228 140.893 160.228H137.725V163.616ZM141.113 168.632C141.993 168.632 142.653 168.493 143.093 168.214C143.533 167.936 143.753 167.503 143.753 166.916C143.753 166.315 143.547 165.868 143.137 165.574C142.741 165.281 142.11 165.134 141.245 165.134H137.725V168.632H141.113ZM159.796 158.6V170.26H157.772V168.544C157.347 169.131 156.79 169.586 156.1 169.908C155.411 170.231 154.656 170.392 153.834 170.392C152.28 170.392 151.055 169.967 150.16 169.116C149.266 168.251 148.818 166.982 148.818 165.31V158.6H150.93V165.068C150.93 166.198 151.202 167.056 151.744 167.642C152.287 168.214 153.064 168.5 154.076 168.5C155.191 168.5 156.071 168.163 156.716 167.488C157.362 166.814 157.684 165.86 157.684 164.628V158.6H159.796ZM178.495 158.49C179.961 158.49 181.12 158.916 181.971 159.766C182.836 160.617 183.269 161.878 183.269 163.55V170.26H181.157V163.792C181.157 162.663 180.893 161.812 180.365 161.24C179.851 160.668 179.111 160.382 178.143 160.382C177.072 160.382 176.221 160.72 175.591 161.394C174.96 162.054 174.645 163.008 174.645 164.254V170.26H172.533V163.792C172.533 162.663 172.269 161.812 171.741 161.24C171.227 160.668 170.487 160.382 169.519 160.382C168.448 160.382 167.597 160.72 166.967 161.394C166.336 162.054 166.021 163.008 166.021 164.254V170.26H163.909V158.6H165.933V160.338C166.358 159.737 166.915 159.282 167.605 158.974C168.294 158.652 169.079 158.49 169.959 158.49C170.868 158.49 171.675 158.674 172.379 159.04C173.083 159.407 173.625 159.942 174.007 160.646C174.447 159.972 175.055 159.444 175.833 159.062C176.625 158.681 177.512 158.49 178.495 158.49ZM191.888 170.524C190.23 170.524 188.954 170.121 188.06 169.314C187.18 168.508 186.74 167.364 186.74 165.882V158.6H188.852V163.11C189.233 162.729 189.746 162.436 190.392 162.23C191.052 162.01 191.763 161.9 192.526 161.9C193.978 161.9 195.107 162.267 195.914 163C196.72 163.734 197.124 164.746 197.124 166.036C197.124 167.43 196.662 168.53 195.738 169.336C194.814 170.128 193.53 170.524 191.888 170.524ZM191.91 168.918C192.863 168.918 193.611 168.662 194.154 168.148C194.696 167.635 194.968 166.946 194.968 166.08C194.968 165.259 194.704 164.614 194.176 164.144C193.648 163.675 192.907 163.44 191.954 163.44C191.25 163.44 190.626 163.58 190.084 163.858C189.541 164.137 189.13 164.526 188.852 165.024V166.058C188.852 166.953 189.123 167.657 189.666 168.17C190.208 168.669 190.956 168.918 191.91 168.918ZM120.584 185.6V197.26H118.472V187.448H113.456L113.324 190.044C113.25 191.614 113.111 192.926 112.906 193.982C112.7 195.024 112.363 195.86 111.894 196.49C111.424 197.121 110.772 197.436 109.936 197.436C109.554 197.436 109.122 197.37 108.638 197.238L108.77 195.456C108.96 195.5 109.136 195.522 109.298 195.522C109.884 195.522 110.324 195.266 110.618 194.752C110.911 194.239 111.102 193.63 111.19 192.926C111.278 192.222 111.358 191.218 111.432 189.912L111.63 185.6H120.584ZM129.661 197.392C128.503 197.392 127.461 197.136 126.537 196.622C125.613 196.109 124.887 195.405 124.359 194.51C123.846 193.601 123.589 192.574 123.589 191.43C123.589 190.286 123.846 189.267 124.359 188.372C124.887 187.463 125.613 186.759 126.537 186.26C127.461 185.747 128.503 185.49 129.661 185.49C130.82 185.49 131.854 185.747 132.763 186.26C133.687 186.759 134.406 187.463 134.919 188.372C135.447 189.267 135.711 190.286 135.711 191.43C135.711 192.574 135.447 193.601 134.919 194.51C134.406 195.405 133.687 196.109 132.763 196.622C131.854 197.136 130.82 197.392 129.661 197.392ZM129.661 195.544C130.409 195.544 131.077 195.376 131.663 195.038C132.265 194.686 132.734 194.202 133.071 193.586C133.409 192.956 133.577 192.237 133.577 191.43C133.577 190.624 133.409 189.912 133.071 189.296C132.734 188.666 132.265 188.182 131.663 187.844C131.077 187.507 130.409 187.338 129.661 187.338C128.913 187.338 128.239 187.507 127.637 187.844C127.051 188.182 126.581 188.666 126.229 189.296C125.892 189.912 125.723 190.624 125.723 191.43C125.723 192.237 125.892 192.956 126.229 193.586C126.581 194.202 127.051 194.686 127.637 195.038C128.239 195.376 128.913 195.544 129.661 195.544ZM147.341 187.448H140.873V197.26H138.761V185.6H147.341V187.448ZM153.982 197.392C152.823 197.392 151.782 197.136 150.858 196.622C149.934 196.109 149.208 195.405 148.68 194.51C148.166 193.601 147.91 192.574 147.91 191.43C147.91 190.286 148.166 189.267 148.68 188.372C149.208 187.463 149.934 186.759 150.858 186.26C151.782 185.747 152.823 185.49 153.982 185.49C155.14 185.49 156.174 185.747 157.084 186.26C158.008 186.759 158.726 187.463 159.24 188.372C159.768 189.267 160.032 190.286 160.032 191.43C160.032 192.574 159.768 193.601 159.24 194.51C158.726 195.405 158.008 196.109 157.084 196.622C156.174 197.136 155.14 197.392 153.982 197.392ZM153.982 195.544C154.73 195.544 155.397 195.376 155.984 195.038C156.585 194.686 157.054 194.202 157.392 193.586C157.729 192.956 157.898 192.237 157.898 191.43C157.898 190.624 157.729 189.912 157.392 189.296C157.054 188.666 156.585 188.182 155.984 187.844C155.397 187.507 154.73 187.338 153.982 187.338C153.234 187.338 152.559 187.507 151.958 187.844C151.371 188.182 150.902 188.666 150.55 189.296C150.212 189.912 150.044 190.624 150.044 191.43C150.044 192.237 150.212 192.956 150.55 193.586C150.902 194.202 151.371 194.686 151.958 195.038C152.559 195.376 153.234 195.544 153.982 195.544Z" fill="white"/>
<path d="M164.436 102.432L150.621 88.616C149.061 87.0565 146.532 87.0565 144.973 88.616L111.19 122.4M111.188 62.4958H157.778C161.454 62.4958 164.434 65.4758 164.434 69.1518V115.743C164.434 119.419 161.454 122.399 157.778 122.399H111.188C107.512 122.399 104.532 119.419 104.532 115.743V69.1518C104.532 65.4758 107.512 62.4958 111.188 62.4958ZM127.825 80.8002C127.825 83.5572 125.59 85.7922 122.833 85.7922C120.076 85.7922 117.841 83.5572 117.841 80.8002C117.841 78.0433 120.076 75.8083 122.833 75.8083C125.59 75.8083 127.825 78.0433 127.825 80.8002Z" stroke="white" stroke-width="4" stroke-linecap="round" stroke-linejoin="round"/>
</g>
</svg>
