<svg width="454" height="439" viewBox="0 0 454 439" fill="none" xmlns="http://www.w3.org/2000/svg">
<g opacity="0.75">
<rect opacity="0.2" x="1" y="1" width="451.006" height="437" rx="13" fill="#D9D9D9"/>
<path d="M452.006 407.369L452.006 385.587M452.006 371.974L452.006 350.192M452.006 336.578L452.006 314.796M452.006 301.182L452.006 279.4M452.006 265.787L452.006 244.005M452.006 230.391L452.006 208.609M452.006 194.995L452.006 173.213M452.006 159.6L452.006 137.818M452.006 124.204L452.006 102.422M452.006 88.8084L452.006 67.0265M452.006 53.4128L452.006 31.6309" stroke="white" stroke-width="2" stroke-linecap="round" stroke-linejoin="round"/>
<path d="M1 407.369L1 385.587M1 371.974L1 350.192M1 336.578L1 314.796M1 301.182L1 279.4M1 265.787L1 244.005M1 230.391L1 208.609M1 194.995L1 173.213M1 159.6L1 137.818M1 124.204L1 102.422M1 88.8084L1 67.0265M1 53.4128L1 31.6309" stroke="white" stroke-width="2" stroke-linecap="round" stroke-linejoin="round"/>
<path d="M33.2147 438H55.625M69.6314 438H92.0417M106.048 438H128.458M142.465 438H164.875M178.881 438H201.292M215.298 438H237.708M251.715 438H274.125M288.131 438H310.542M324.548 438H346.958M360.965 438H383.375M397.381 438H419.792M19.2083 438H15.0064C7.27088 438 1 431.905 1 424.386V420.302M433.798 438H438C445.736 438 452.006 431.905 452.006 424.386V420.302" stroke="white" stroke-width="2" stroke-linecap="round" stroke-linejoin="round"/>
<path d="M33.2147 1H55.625M69.6314 1H92.0417M106.048 1H128.458M142.465 1H164.875M178.881 1H201.292M215.298 1H237.708M251.715 1H274.125M288.131 1H310.542M324.548 1H346.958M360.965 1H383.375M397.381 1H419.792M19.2083 1H15.0064C7.27088 1 1 7.09506 1 14.6137V18.6978M433.798 1H438C445.736 1 452.006 7.09506 452.006 14.6137V18.6978" stroke="white" stroke-width="2" stroke-linecap="round" stroke-linejoin="round"/>
<path d="M141.283 293.086V286.178C141.283 281.756 138.643 279.424 134.639 279.424C130.679 279.424 128.039 281.756 128.039 286.178V293.086H126.147L126.125 298.366H128.149L128.171 295H141.129V298.366H143.175V293.086H141.283ZM130.217 293.086V285.958C130.217 282.9 131.933 281.404 134.639 281.404C137.389 281.404 139.061 282.9 139.061 285.958V293.086H130.217ZM150.745 295.132C154.243 295.132 156.795 292.646 156.795 289.17C156.795 285.694 154.243 283.23 150.745 283.23C147.247 283.23 144.673 285.694 144.673 289.17C144.673 292.646 147.247 295.132 150.745 295.132ZM150.745 293.284C148.501 293.284 146.807 291.656 146.807 289.17C146.807 286.684 148.501 285.078 150.745 285.078C152.989 285.078 154.661 286.684 154.661 289.17C154.661 291.656 152.989 293.284 150.745 293.284ZM165.785 283.736C163.827 283.736 162.177 284.594 161.187 286.09C161.407 283.054 162.837 281.558 165.873 280.898L170.779 279.842L170.471 277.906L165.147 279.094C161.121 279.974 159.163 282.592 159.163 287.41C159.163 292.316 161.385 295.176 165.367 295.176C168.931 295.176 171.395 292.844 171.395 289.412C171.395 286.068 169.085 283.736 165.785 283.736ZM165.411 293.416C163.167 293.416 161.561 291.788 161.561 289.478C161.561 287.168 163.123 285.628 165.411 285.628C167.699 285.628 169.239 287.168 169.239 289.478C169.239 291.788 167.677 293.416 165.411 293.416ZM183.255 283.34V285.1C182.287 283.846 180.835 283.23 179.185 283.23C175.775 283.23 173.289 285.606 173.289 289.17C173.289 292.734 175.775 295.132 179.185 295.132C180.901 295.132 182.397 294.472 183.343 293.152V295H185.367V283.34H183.255ZM179.361 293.284C177.117 293.284 175.423 291.656 175.423 289.17C175.423 286.684 177.117 285.078 179.361 285.078C181.583 285.078 183.277 286.684 183.277 289.17C183.277 291.656 181.583 293.284 179.361 293.284ZM197.349 288.95C198.515 288.488 199.219 287.586 199.219 286.332C199.219 284.418 197.569 283.34 194.819 283.34H189.407V295H195.017C198.119 295 199.615 293.812 199.615 291.788C199.615 290.314 198.889 289.346 197.349 288.95ZM191.475 284.968H194.643C196.249 284.968 197.107 285.518 197.107 286.64C197.107 287.762 196.249 288.356 194.643 288.356H191.475V284.968ZM194.863 293.372H191.475V289.874H194.995C196.733 289.874 197.503 290.446 197.503 291.656C197.503 292.844 196.601 293.372 194.863 293.372ZM211.435 283.34V289.368C211.435 291.876 210.027 293.24 207.827 293.24C205.825 293.24 204.681 292.096 204.681 289.808V283.34H202.569V290.05C202.569 293.482 204.571 295.132 207.585 295.132C209.235 295.132 210.665 294.472 211.523 293.284V295H213.547V283.34H211.435ZM232.245 283.23C230.265 283.23 228.637 284.066 227.757 285.386C226.987 283.934 225.491 283.23 223.709 283.23C221.949 283.23 220.519 283.89 219.683 285.078V283.34H217.659V295H219.771V288.994C219.771 286.464 221.157 285.122 223.269 285.122C225.183 285.122 226.283 286.244 226.283 288.532V295H228.395V288.994C228.395 286.464 229.781 285.122 231.893 285.122C233.807 285.122 234.907 286.244 234.907 288.532V295H237.019V288.29C237.019 284.858 235.083 283.23 232.245 283.23ZM245.638 295.264C248.938 295.264 250.874 293.548 250.874 290.776C250.874 288.202 249.18 286.64 246.276 286.64C244.736 286.64 243.372 287.102 242.602 287.85V283.34H240.49V290.622C240.49 293.592 242.316 295.264 245.638 295.264ZM245.66 293.658C243.768 293.658 242.602 292.58 242.602 290.798V289.764C243.152 288.774 244.274 288.18 245.704 288.18C247.618 288.18 248.718 289.192 248.718 290.82C248.718 292.536 247.574 293.658 245.66 293.658ZM267.496 288.95C268.662 288.488 269.366 287.586 269.366 286.332C269.366 284.418 267.716 283.34 264.966 283.34H259.554V295H265.164C268.266 295 269.762 293.812 269.762 291.788C269.762 290.314 269.036 289.346 267.496 288.95ZM261.622 284.968H264.79C266.396 284.968 267.254 285.518 267.254 286.64C267.254 287.762 266.396 288.356 264.79 288.356H261.622V284.968ZM265.01 293.372H261.622V289.874H265.142C266.88 289.874 267.65 290.446 267.65 291.656C267.65 292.844 266.748 293.372 265.01 293.372ZM281.581 283.34V289.368C281.581 291.876 280.173 293.24 277.973 293.24C275.971 293.24 274.827 292.096 274.827 289.808V283.34H272.715V290.05C272.715 293.482 274.717 295.132 277.731 295.132C279.381 295.132 280.811 294.472 281.669 293.284V295H283.693V283.34H281.581ZM296.892 283.34V285.144C295.902 283.868 294.318 283.23 292.58 283.23C289.214 283.23 286.662 285.496 286.662 288.862C286.662 292.228 289.214 294.516 292.58 294.516C294.252 294.516 295.77 293.922 296.782 292.712V293.636C296.782 296.276 295.528 297.552 292.778 297.552C291.062 297.552 289.368 296.958 288.29 296.034L287.278 297.662C288.554 298.806 290.71 299.4 292.844 299.4C296.804 299.4 298.894 297.53 298.894 293.416V283.34H296.892ZM292.822 292.668C290.468 292.668 288.796 291.106 288.796 288.862C288.796 286.596 290.468 285.078 292.822 285.078C295.154 285.078 296.826 286.596 296.826 288.862C296.826 291.106 295.154 292.668 292.822 292.668ZM308.231 293.284C306.273 293.284 304.821 292.36 304.227 290.754L313.489 288.95C313.423 285.474 310.937 283.23 307.747 283.23C304.359 283.23 301.895 285.716 301.895 289.17C301.895 292.646 304.403 295.132 308.165 295.132C310.101 295.132 311.707 294.472 312.741 293.24L311.597 291.876C310.739 292.822 309.595 293.284 308.231 293.284ZM307.747 285.012C309.639 285.012 311.025 286.2 311.399 287.872L303.941 289.28V289.06C303.941 286.618 305.525 285.012 307.747 285.012ZM321.481 295.132C324.979 295.132 327.531 292.646 327.531 289.17C327.531 285.694 324.979 283.23 321.481 283.23C317.983 283.23 315.409 285.694 315.409 289.17C315.409 292.646 317.983 295.132 321.481 295.132ZM321.481 293.284C319.237 293.284 317.543 291.656 317.543 289.17C317.543 286.684 319.237 285.078 321.481 285.078C323.725 285.078 325.397 286.684 325.397 289.17C325.397 291.656 323.725 293.284 321.481 293.284Z" fill="white"/>
<path d="M294 152.998L251.364 182.998L294 212.998V152.998Z" stroke="white" stroke-width="4" stroke-linecap="round" stroke-linejoin="round"/>
<path d="M239.182 141H172.182C165.454 141 160 146.373 160 153V213C160 219.627 165.454 225 172.182 225H239.182C245.91 225 251.364 219.627 251.364 213V153C251.364 146.373 245.91 141 239.182 141Z" stroke="white" stroke-width="4" stroke-linecap="round" stroke-linejoin="round"/>
</g>
</svg>
