<svg width="28" height="18" viewBox="0 0 28 18" fill="none" xmlns="http://www.w3.org/2000/svg">
<path d="M17.1887 14.3333V3.66667C17.1887 2.83833 17.1887 2.42416 17.0393 2.09745C16.8402 1.66185 16.4582 1.31576 15.9773 1.13533C15.6167 1 15.1596 1 14.2453 1C13.331 1 12.8738 1 12.5132 1.13533C12.0324 1.31576 11.6504 1.66185 11.4513 2.09745C11.3019 2.42416 11.3019 2.83833 11.3019 3.66667V14.3333C11.3019 15.1617 11.3019 15.5758 11.4513 15.9025C11.6504 16.3382 12.0324 16.6842 12.5132 16.8647C12.8738 17 13.331 17 14.2453 17C15.1596 17 15.6167 17 15.9773 16.8647C16.4582 16.6842 16.8402 16.3382 17.0393 15.9025C17.1887 15.5758 17.1887 15.1617 17.1887 14.3333Z" stroke="white" stroke-width="2" stroke-linecap="round" stroke-linejoin="round"/>
<path d="M27 12.5556V5.44444C27 4.6161 27 4.20193 26.8506 3.87523C26.6515 3.43962 26.2695 3.09354 25.7887 2.9131C25.4281 2.77778 24.9709 2.77778 24.0566 2.77778C23.1423 2.77778 22.6852 2.77778 22.3245 2.9131C21.8437 3.09354 21.4617 3.43962 21.2626 3.87523C21.1132 4.20193 21.1132 4.6161 21.1132 5.44444V12.5556C21.1132 13.3839 21.1132 13.7981 21.2626 14.1248C21.4617 14.5604 21.8437 14.9065 22.3245 15.0869C22.6852 15.2222 23.1423 15.2222 24.0566 15.2222C24.9709 15.2222 25.4281 15.2222 25.7887 15.0869C26.2695 14.9065 26.6515 14.5604 26.8506 14.1248C27 13.7981 27 13.3839 27 12.5556Z" stroke="white" stroke-width="2" stroke-linecap="round" stroke-linejoin="round"/>
<path d="M6.88679 12.5556V5.44444C6.88679 4.6161 6.88679 4.20193 6.73742 3.87523C6.53827 3.43962 6.15626 3.09354 5.67546 2.9131C5.31485 2.77778 4.8577 2.77778 3.9434 2.77778C3.0291 2.77778 2.57195 2.77778 2.21134 2.9131C1.73053 3.09354 1.34853 3.43962 1.14937 3.87523C1 4.20193 1 4.6161 1 5.44444V12.5556C1 13.3839 1 13.7981 1.14937 14.1248C1.34853 14.5604 1.73053 14.9065 2.21134 15.0869C2.57195 15.2222 3.0291 15.2222 3.9434 15.2222C4.8577 15.2222 5.31485 15.2222 5.67546 15.0869C6.15626 14.9065 6.53827 14.5604 6.73742 14.1248C6.88679 13.7981 6.88679 13.3839 6.88679 12.5556Z" stroke="white" stroke-width="2" stroke-linecap="round" stroke-linejoin="round"/>
</svg>
