<svg width="911" height="60" viewBox="0 0 911 60" fill="none" xmlns="http://www.w3.org/2000/svg">
<path d="M0 60.0003L24.5 33.5C32.7659 25.0433 40.8252 16.5206 61.9033 21.7069C83.0434 27.0914 115.514 42.6006 137.212 35.6635C158.29 28.7264 169.865 14.0832 191.563 14.1823C212.579 14.0832 220.731 37.3139 241.809 42.5002C263.321 47.8847 297.573 12.9679 318.651 16.6017C340.101 20.2354 374.813 40.8498 395.891 35.6635C417.217 30.279 425.281 16.0653 446.36 17.717C467.624 19.3687 471.537 21.6902 492.615 35.6635C513.755 49.7689 542.335 10.6808 564.033 1.86079C588.057 -6.58162 599.165 47.1501 625 42.5002C652.253 38.233 651.196 3.95102 701.156 35.6635C726.5 28.481 737.422 11.5346 758.5 8C779.95 4.59752 797.922 40.6173 819 42.5003C840.326 44.251 856.315 16.1964 874.5 31.5C892.685 46.8036 911 60.0003 911 60.0003H882.118C871.455 60.0003 849.943 60.0003 828.865 60.0003C807.725 60.0003 786.709 60.0003 765.011 60.0003C743.932 60.0003 722.854 60.0003 701.156 60.0003C680.14 60.0003 659 60.0003 637.922 60.0003C616.41 60.0003 595.146 60.0003 574.068 60.0003C552.618 60.0003 531.292 60.0003 510.214 60.0003C488.888 60.0003 467.438 60.0003 446.36 60.0003C425.095 60.0003 403.583 60.0003 382.505 60.0003C361.365 60.0003 340.349 60.0003 318.651 60.0003C297.573 60.0003 276.495 60.0003 254.797 60.0003C233.781 60.0003 212.641 60.0003 191.563 60.0003C170.051 60.0003 148.787 60.0003 127.708 60.0003C106.258 60.0003 84.9323 60.0003 63.8542 60.0003C42.5282 60.0003 21.0781 60.0003 10.539 60.0003H0Z" fill="url(#paint0_linear_1925_1177)"/>
<defs>
<linearGradient id="paint0_linear_1925_1177" x1="-9.35915" y1="-20.4745" x2="892.672" y2="-27.3141" gradientUnits="userSpaceOnUse">
<stop stop-color="#FF6D00"/>
<stop offset="1" stop-color="#FF3B3B"/>
</linearGradient>
</defs>
</svg>
