<svg width="914" height="103" viewBox="0 0 914 103" fill="none" xmlns="http://www.w3.org/2000/svg">
<path d="M2 102L27.4509 54.759C31 47 43.7761 37.7796 64.8542 42.9659C85.9943 48.3504 116.514 69.6003 138.212 62.6632C159.29 55.7261 170.865 1.90105 192.563 2.00015C213.579 1.90105 221.731 49.5727 242.809 54.759C264.321 60.1435 298.573 25.2268 319.651 28.8605C341.101 32.4942 375.813 67.8495 396.891 62.6632C418.217 57.2787 426.281 27.2088 447.36 28.8605C468.624 30.5122 472.537 48.6899 493.615 62.6632C514.755 76.7686 543.335 37.6805 565.033 28.8605C589.057 20.4181 599.931 59.4089 625.766 54.759C653.019 50.4919 652.196 9.46964 702.156 41.1821C723.668 34.1459 744.932 13.0043 766.011 9.46964C787.461 6.06716 798.135 42.8338 819.213 44.7167C840.539 46.4675 857.349 32.0559 875.534 47.3595C893.719 62.6632 912 102 912 102" stroke="#FFB03B" stroke-width="3"/>
</svg>
