<svg width="911" height="85" viewBox="0 0 911 85" fill="none" xmlns="http://www.w3.org/2000/svg">
<path d="M0 85L26.4509 52.759C34.7169 44.3023 42.7761 35.7796 63.8542 40.9659C84.9943 46.3504 115.514 67.6003 137.212 60.6632C158.29 53.7261 169.865 -0.0989471 191.563 0.000154292C212.579 -0.0989471 220.731 47.5727 241.809 52.759C263.321 58.1435 297.573 23.2268 318.651 26.8605C340.101 30.4942 374.813 65.8495 395.891 60.6632C417.217 55.2787 425.281 25.2088 446.36 26.8605C467.624 28.5122 471.537 46.6899 492.615 60.6632C513.755 74.7686 542.335 35.6805 564.033 26.8605C588.057 18.4181 598.931 57.4089 624.766 52.759C652.019 48.4919 651.196 7.46964 701.156 39.1821C722.668 32.1459 743.932 11.0043 765.011 7.46964C786.461 4.06716 797.135 40.8338 818.213 42.7167C839.539 44.4675 856.349 30.0559 874.534 45.3595C892.719 60.6632 911 85 911 85H882.118C871.455 85 849.943 85 828.865 85C807.725 85 786.709 85 765.011 85C743.932 85 722.854 85 701.156 85C680.14 85 659 85 637.922 85C616.41 85 595.146 85 574.068 85C552.618 85 531.292 85 510.214 85C488.888 85 467.438 85 446.36 85C425.095 85 403.583 85 382.505 85C361.365 85 340.349 85 318.651 85C297.573 85 276.495 85 254.797 85C233.781 85 212.641 85 191.563 85C170.051 85 148.787 85 127.708 85C106.258 85 84.9323 85 63.8542 85C42.5281 85 21.0781 85 10.539 85H0Z" fill="url(#paint0_linear_1925_1261)"/>
<defs>
<linearGradient id="paint0_linear_1925_1261" x1="-9.35915" y1="4.52554" x2="892.672" y2="-2.31407" gradientUnits="userSpaceOnUse">
<stop stop-color="#FFB03B"/>
<stop offset="0.932292" stop-color="#FF6D00"/>
</linearGradient>
</defs>
</svg>
