<svg width="14" height="20" viewBox="0 0 14 20" fill="none" xmlns="http://www.w3.org/2000/svg">
<path fill-rule="evenodd" clip-rule="evenodd" d="M12.5762 9.89738C12.975 9.13786 13.2131 8.279 13.2443 7.36374C13.3557 4.09613 10.7871 1.3471 7.50718 1.22361C4.22726 1.10011 1.47807 3.64891 1.3667 6.91652C1.33421 7.86991 1.52985 8.77912 1.90474 9.59189C3.06781 12.8246 6.93887 17.8974 6.93887 17.8974C6.93887 17.8974 11.6284 12.1368 12.5762 9.89738ZM7.21844 9.69507C8.8584 9.75682 10.233 8.48244 10.2887 6.84863C10.3444 5.21483 9.06006 3.84031 7.4201 3.77856C5.78014 3.71681 4.40553 4.99122 4.34984 6.62502C4.29416 8.25883 5.57848 9.63332 7.21844 9.69507Z" stroke="white" stroke-width="1.5"/>
</svg>
