<svg width="15" height="16" viewBox="0 0 15 16" fill="none" xmlns="http://www.w3.org/2000/svg">
<path d="M14.051 11.2612L13.9841 13.2251C13.9786 13.4074 13.9349 13.5865 13.8556 13.7508C13.7763 13.915 13.6632 14.0609 13.5236 14.1791C13.384 14.2972 13.221 14.3851 13.045 14.4369C12.8689 14.4888 12.6838 14.5035 12.5014 14.4802C10.4788 14.1849 8.55235 13.4231 6.87671 12.2561C5.31704 11.191 4.01137 9.79912 3.05243 8.17927C1.99575 6.42948 1.3682 4.45894 1.22063 2.42731C1.21031 2.24566 1.23821 2.06403 1.30255 1.89397C1.36688 1.72391 1.46625 1.56916 1.59432 1.43957C1.72238 1.30997 1.87635 1.20837 2.0464 1.14124C2.21646 1.0741 2.39888 1.04291 2.58206 1.04963L4.56113 1.12415C4.88139 1.13308 5.18793 1.25727 5.42362 1.47357C5.6593 1.68987 5.80805 1.98353 5.84214 2.2998C5.90425 2.93144 6.03813 3.55438 6.24122 4.15672C6.322 4.39437 6.33253 4.64974 6.27157 4.89257C6.21061 5.1354 6.08072 5.35552 5.89728 5.52683L5.03114 6.32667C5.91439 8.00094 7.23561 9.40943 8.85541 10.4035L9.72156 9.60368C9.90692 9.43443 10.1375 9.32166 10.386 9.27873C10.6345 9.23581 10.8904 9.26453 11.1236 9.3615C11.7145 9.60567 12.3311 9.78281 12.9617 9.88955C13.2806 9.94647 13.5678 10.1177 13.7687 10.3706C13.9695 10.6235 14.07 10.9404 14.051 11.2612Z" stroke="white" stroke-width="1.5" stroke-linecap="round" stroke-linejoin="round"/>
</svg>
