<svg width="26" height="21" viewBox="0 0 26 21" fill="none" xmlns="http://www.w3.org/2000/svg">
<path d="M24.9971 17.8889C24.9971 18.4488 24.7672 18.9858 24.358 19.3817C23.9489 19.7776 23.3939 20 22.8153 20H3.17889C2.60023 20 2.04528 19.7776 1.63611 19.3817C1.22694 18.9858 0.99707 18.4488 0.99707 17.8889V6.27778C0.99707 5.71788 1.22694 5.18091 1.63611 4.785C2.04528 4.38909 2.60023 4.16667 3.17889 4.16667H7.54252L9.72434 1H16.2698L18.4516 4.16667H22.8153C23.3939 4.16667 23.9489 4.38909 24.358 4.785C24.7672 5.18091 24.9971 5.71788 24.9971 6.27778V17.8889Z" stroke="white" stroke-width="1.5" stroke-linecap="round" stroke-linejoin="round"/>
<path d="M12.9982 15.7778C15.4082 15.7778 17.3618 13.8874 17.3618 11.5556C17.3618 9.22369 15.4082 7.33333 12.9982 7.33333C10.5882 7.33333 8.63457 9.22369 8.63457 11.5556C8.63457 13.8874 10.5882 15.7778 12.9982 15.7778Z" stroke="white" stroke-width="1.5" stroke-linecap="round" stroke-linejoin="round"/>
</svg>
