<svg width="14" height="13" viewBox="0 0 14 13" fill="none" xmlns="http://www.w3.org/2000/svg">
<path d="M12.6391 8.39532L9.42666 5.05767L2.35919 12.4005M2.19602 0.651978H11.3338C12.0547 0.651978 12.6391 1.23642 12.6391 1.95737V11.0951C12.6391 11.8161 12.0547 12.4005 11.3338 12.4005H2.19602C1.47507 12.4005 0.890625 11.8161 0.890625 11.0951V1.95737C0.890625 1.23642 1.47507 0.651978 2.19602 0.651978ZM5.29632 4.32339C5.29632 4.72892 4.96757 5.05767 4.56204 5.05767C4.1565 5.05767 3.82776 4.72892 3.82776 4.32339C3.82776 3.91786 4.1565 3.58911 4.56204 3.58911C4.96757 3.58911 5.29632 3.91786 5.29632 4.32339Z" stroke="white" stroke-linecap="round" stroke-linejoin="round"/>
</svg>
